<svg xmlns="http://www.w3.org/2000/svg" xmlns:xlink="http://www.w3.org/1999/xlink" width="500" zoomAndPan="magnify" viewBox="0 0 375 374.999991" height="500" preserveAspectRatio="xMidYMid meet" version="1.0"><defs><clipPath id="6e965b289c"><path d="M 96 114 L 287 114 L 287 309.78125 L 96 309.78125 Z M 96 114 " clip-rule="nonzero"/></clipPath><clipPath id="cccd00931c"><path d="M 91.859375 57.03125 L 291 57.03125 L 291 128 L 91.859375 128 Z M 91.859375 57.03125 " clip-rule="nonzero"/></clipPath></defs><g clip-path="url(#6e965b289c)"><path fill="#087e8b" d="M 277.273438 190.757812 C 277.273438 189.503906 277.429688 188.089844 277.429688 186.835938 C 277.429688 167.554688 269.589844 148.273438 255.011719 135.105469 C 238.234375 119.898438 213.464844 114.878906 191.363281 114.878906 C 147.78125 114.878906 105.453125 138.867188 105.453125 186.835938 C 105.453125 188.089844 105.453125 189.34375 105.609375 190.757812 C 96.046875 194.675781 93.851562 219.757812 100.90625 248.289062 C 108.117188 277.761719 120.816406 300.964844 131.164062 298.457031 C 136.179688 297.203125 139.628906 290.304688 141.195312 280.273438 C 155.304688 297.515625 172.863281 309.429688 191.675781 309.429688 C 210.488281 309.429688 228.046875 297.515625 242.15625 280.273438 C 243.253906 287.328125 245.289062 292.8125 248.113281 295.949219 C 248.898438 297.203125 249.992188 297.988281 250.933594 298.300781 C 251.089844 298.300781 251.246094 298.300781 251.5625 298.457031 C 251.71875 298.457031 251.875 298.613281 252.1875 298.613281 C 262.535156 301.121094 275.234375 277.761719 282.445312 248.449219 C 289.1875 219.601562 286.992188 194.363281 277.273438 190.757812 Z M 277.273438 190.757812 " fill-opacity="1" fill-rule="nonzero"/></g><path fill="#ffffff" d="M 172.394531 243.746094 L 188.070312 234.339844 L 180.230469 242.648438 L 172.394531 250.957031 L 156.714844 234.339844 Z M 172.394531 243.746094 " fill-opacity="1" fill-rule="nonzero"/><path fill="#ffffff" d="M 138.84375 243.746094 L 154.519531 234.339844 L 146.683594 242.648438 L 138.84375 250.957031 L 131.007812 242.648438 L 123.167969 234.339844 Z M 138.84375 243.746094 " fill-opacity="1" fill-rule="nonzero"/><path fill="#ffffff" d="M 210.957031 244.527344 L 226.636719 235.121094 L 210.957031 251.738281 L 203.121094 243.429688 L 195.28125 235.121094 Z M 210.957031 244.527344 " fill-opacity="1" fill-rule="nonzero"/><path fill="#ffffff" d="M 244.195312 244.527344 L 259.871094 235.121094 L 252.03125 243.429688 L 244.195312 251.738281 L 228.515625 235.121094 Z M 244.195312 244.527344 " fill-opacity="1" fill-rule="nonzero"/><path fill="#ffffff" d="M 156.714844 266.632812 L 172.394531 257.226562 L 156.714844 273.84375 L 148.878906 265.535156 L 141.039062 257.226562 Z M 156.714844 266.632812 " fill-opacity="1" fill-rule="nonzero"/><path fill="#ffffff" d="M 191.832031 266.632812 L 207.507812 257.226562 L 199.671875 265.535156 L 191.832031 273.84375 L 183.992188 265.535156 L 176.15625 257.226562 Z M 191.832031 266.632812 " fill-opacity="1" fill-rule="nonzero"/><path fill="#ffffff" d="M 227.574219 266.632812 L 243.253906 257.226562 L 227.574219 273.84375 L 219.738281 265.535156 L 211.898438 257.226562 Z M 227.574219 266.632812 " fill-opacity="1" fill-rule="nonzero"/><path fill="#ffffff" d="M 176.15625 287.167969 L 191.832031 277.761719 L 183.992188 286.074219 L 176.15625 294.382812 L 168.316406 286.074219 L 160.480469 277.761719 Z M 176.15625 287.167969 " fill-opacity="1" fill-rule="nonzero"/><path fill="#ffffff" d="M 209.859375 287.167969 L 225.539062 277.761719 L 217.699219 286.074219 L 209.859375 294.382812 L 202.023438 286.074219 L 194.183594 277.761719 Z M 209.859375 287.167969 " fill-opacity="1" fill-rule="nonzero"/><path fill="#ffffff" d="M 204.058594 206.746094 L 191.519531 203.925781 L 178.976562 206.746094 L 179.605469 207.21875 L 178.976562 207.21875 L 185.25 215.683594 L 191.519531 224.148438 L 204.058594 207.21875 L 203.433594 207.21875 Z M 204.058594 206.746094 " fill-opacity="1" fill-rule="nonzero"/><path fill="#ffffff" d="M 188.226562 178.371094 C 188.226562 179.441406 188.175781 180.503906 188.070312 181.566406 C 187.964844 182.628906 187.808594 183.6875 187.601562 184.734375 C 187.390625 185.78125 187.132812 186.816406 186.824219 187.835938 C 186.511719 188.859375 186.152344 189.863281 185.746094 190.851562 C 185.335938 191.835938 184.878906 192.800781 184.375 193.742188 C 183.875 194.683594 183.324219 195.601562 182.730469 196.488281 C 182.136719 197.375 181.503906 198.234375 180.824219 199.058594 C 180.148438 199.882812 179.429688 200.675781 178.675781 201.429688 C 177.921875 202.183594 177.128906 202.902344 176.304688 203.578125 C 175.480469 204.253906 174.621094 204.890625 173.734375 205.484375 C 172.847656 206.078125 171.933594 206.625 170.988281 207.128906 C 170.046875 207.632812 169.085938 208.089844 168.097656 208.496094 C 167.109375 208.90625 166.105469 209.265625 165.085938 209.574219 C 164.0625 209.886719 163.027344 210.144531 161.980469 210.351562 C 160.933594 210.5625 159.878906 210.71875 158.816406 210.824219 C 157.753906 210.925781 156.6875 210.980469 155.617188 210.980469 C 154.550781 210.980469 153.484375 210.925781 152.421875 210.824219 C 151.359375 210.71875 150.304688 210.5625 149.257812 210.351562 C 148.210938 210.144531 147.175781 209.886719 146.152344 209.574219 C 145.132812 209.265625 144.125 208.90625 143.140625 208.496094 C 142.152344 208.089844 141.1875 207.632812 140.246094 207.128906 C 139.304688 206.625 138.390625 206.078125 137.503906 205.484375 C 136.613281 204.890625 135.757812 204.253906 134.933594 203.578125 C 134.105469 202.902344 133.316406 202.183594 132.5625 201.429688 C 131.804688 200.675781 131.089844 199.882812 130.414062 199.058594 C 129.734375 198.234375 129.097656 197.375 128.507812 196.488281 C 127.914062 195.601562 127.363281 194.683594 126.859375 193.742188 C 126.359375 192.800781 125.902344 191.835938 125.492188 190.851562 C 125.085938 189.863281 124.726562 188.859375 124.414062 187.835938 C 124.105469 186.816406 123.847656 185.78125 123.636719 184.734375 C 123.429688 183.6875 123.273438 182.628906 123.167969 181.566406 C 123.0625 180.503906 123.011719 179.441406 123.011719 178.371094 C 123.011719 177.304688 123.0625 176.238281 123.167969 175.175781 C 123.273438 174.113281 123.429688 173.058594 123.636719 172.011719 C 123.847656 170.964844 124.105469 169.929688 124.414062 168.90625 C 124.726562 167.882812 125.085938 166.878906 125.492188 165.894531 C 125.902344 164.90625 126.359375 163.941406 126.859375 163 C 127.363281 162.058594 127.914062 161.144531 128.507812 160.253906 C 129.097656 159.367188 129.734375 158.511719 130.414062 157.6875 C 131.089844 156.859375 131.804688 156.070312 132.5625 155.316406 C 133.316406 154.558594 134.105469 153.84375 134.933594 153.164062 C 135.757812 152.488281 136.613281 151.851562 137.503906 151.257812 C 138.390625 150.664062 139.304688 150.117188 140.246094 149.613281 C 141.1875 149.109375 142.152344 148.65625 143.140625 148.246094 C 144.125 147.835938 145.132812 147.476562 146.152344 147.167969 C 147.175781 146.859375 148.210938 146.597656 149.257812 146.390625 C 150.304688 146.183594 151.359375 146.027344 152.421875 145.921875 C 153.484375 145.816406 154.550781 145.765625 155.617188 145.765625 C 156.6875 145.765625 157.753906 145.816406 158.816406 145.921875 C 159.878906 146.027344 160.933594 146.183594 161.980469 146.390625 C 163.027344 146.597656 164.0625 146.859375 165.085938 147.167969 C 166.105469 147.476562 167.109375 147.835938 168.097656 148.246094 C 169.085938 148.65625 170.046875 149.109375 170.988281 149.613281 C 171.933594 150.117188 172.847656 150.664062 173.734375 151.257812 C 174.621094 151.851562 175.480469 152.488281 176.304688 153.164062 C 177.128906 153.84375 177.921875 154.558594 178.675781 155.316406 C 179.429688 156.070312 180.148438 156.859375 180.824219 157.683594 C 181.503906 158.511719 182.136719 159.367188 182.730469 160.253906 C 183.324219 161.144531 183.875 162.058594 184.375 163 C 184.878906 163.941406 185.335938 164.90625 185.746094 165.894531 C 186.152344 166.878906 186.511719 167.882812 186.824219 168.90625 C 187.132812 169.929688 187.390625 170.964844 187.601562 172.011719 C 187.808594 173.058594 187.964844 174.113281 188.070312 175.175781 C 188.175781 176.238281 188.226562 177.304688 188.226562 178.371094 Z M 188.226562 178.371094 " fill-opacity="1" fill-rule="nonzero"/><path fill="#0b3954" d="M 172.238281 178.371094 C 172.238281 178.917969 172.210938 179.460938 172.15625 180 C 172.101562 180.542969 172.023438 181.078125 171.917969 181.613281 C 171.8125 182.148438 171.679688 182.675781 171.519531 183.195312 C 171.363281 183.714844 171.179688 184.226562 170.972656 184.730469 C 170.761719 185.234375 170.53125 185.726562 170.273438 186.207031 C 170.019531 186.683594 169.738281 187.152344 169.4375 187.605469 C 169.132812 188.054688 168.808594 188.492188 168.464844 188.914062 C 168.117188 189.335938 167.753906 189.738281 167.371094 190.121094 C 166.984375 190.507812 166.582031 190.871094 166.160156 191.21875 C 165.738281 191.5625 165.304688 191.886719 164.851562 192.1875 C 164.398438 192.492188 163.933594 192.769531 163.453125 193.027344 C 162.972656 193.285156 162.480469 193.515625 161.976562 193.722656 C 161.476562 193.933594 160.964844 194.117188 160.441406 194.273438 C 159.921875 194.433594 159.394531 194.5625 158.859375 194.671875 C 158.328125 194.777344 157.789062 194.855469 157.246094 194.910156 C 156.707031 194.960938 156.164062 194.988281 155.617188 194.988281 C 155.074219 194.988281 154.53125 194.960938 153.988281 194.910156 C 153.449219 194.855469 152.910156 194.777344 152.375 194.671875 C 151.84375 194.5625 151.316406 194.433594 150.796875 194.273438 C 150.273438 194.117188 149.761719 193.933594 149.257812 193.722656 C 148.757812 193.515625 148.265625 193.285156 147.785156 193.027344 C 147.304688 192.769531 146.839844 192.492188 146.386719 192.1875 C 145.933594 191.886719 145.496094 191.5625 145.078125 191.21875 C 144.65625 190.871094 144.253906 190.507812 143.867188 190.121094 C 143.484375 189.738281 143.117188 189.335938 142.773438 188.914062 C 142.429688 188.492188 142.105469 188.054688 141.800781 187.605469 C 141.5 187.152344 141.21875 186.683594 140.964844 186.207031 C 140.707031 185.726562 140.472656 185.234375 140.265625 184.730469 C 140.058594 184.226562 139.875 183.714844 139.71875 183.195312 C 139.558594 182.675781 139.425781 182.148438 139.320312 181.613281 C 139.214844 181.078125 139.132812 180.542969 139.082031 180 C 139.027344 179.460938 139 178.917969 139 178.371094 C 139 177.828125 139.027344 177.285156 139.082031 176.742188 C 139.132812 176.203125 139.214844 175.664062 139.320312 175.128906 C 139.425781 174.597656 139.558594 174.070312 139.71875 173.546875 C 139.875 173.027344 140.058594 172.515625 140.265625 172.011719 C 140.472656 171.511719 140.707031 171.019531 140.964844 170.539062 C 141.21875 170.058594 141.5 169.59375 141.800781 169.140625 C 142.105469 168.6875 142.429688 168.25 142.773438 167.828125 C 143.117188 167.410156 143.484375 167.007812 143.867188 166.621094 C 144.253906 166.238281 144.65625 165.871094 145.078125 165.527344 C 145.496094 165.179688 145.933594 164.855469 146.386719 164.554688 C 146.839844 164.253906 147.304688 163.972656 147.785156 163.714844 C 148.265625 163.460938 148.757812 163.226562 149.257812 163.019531 C 149.761719 162.8125 150.273438 162.628906 150.796875 162.46875 C 151.316406 162.3125 151.84375 162.179688 152.375 162.074219 C 152.910156 161.96875 153.449219 161.886719 153.988281 161.835938 C 154.53125 161.78125 155.074219 161.753906 155.617188 161.753906 C 156.164062 161.753906 156.707031 161.78125 157.246094 161.835938 C 157.789062 161.886719 158.328125 161.96875 158.859375 162.074219 C 159.394531 162.179688 159.921875 162.3125 160.441406 162.46875 C 160.964844 162.628906 161.476562 162.8125 161.976562 163.019531 C 162.480469 163.226562 162.972656 163.460938 163.453125 163.714844 C 163.933594 163.972656 164.398438 164.253906 164.851562 164.554688 C 165.304688 164.855469 165.738281 165.179688 166.160156 165.527344 C 166.582031 165.871094 166.984375 166.238281 167.371094 166.621094 C 167.753906 167.007812 168.117188 167.410156 168.464844 167.828125 C 168.808594 168.25 169.132812 168.6875 169.4375 169.140625 C 169.738281 169.59375 170.019531 170.058594 170.273438 170.539062 C 170.53125 171.019531 170.761719 171.511719 170.972656 172.011719 C 171.179688 172.515625 171.363281 173.027344 171.519531 173.546875 C 171.679688 174.070312 171.8125 174.597656 171.917969 175.128906 C 172.023438 175.664062 172.101562 176.203125 172.15625 176.742188 C 172.210938 177.285156 172.238281 177.828125 172.238281 178.371094 Z M 172.238281 178.371094 " fill-opacity="1" fill-rule="nonzero"/><path fill="#ffffff" d="M 166.75 184.015625 C 166.75 184.519531 166.699219 185.019531 166.601562 185.515625 C 166.503906 186.007812 166.359375 186.488281 166.164062 186.957031 C 165.972656 187.421875 165.734375 187.863281 165.453125 188.285156 C 165.175781 188.703125 164.855469 189.089844 164.5 189.449219 C 164.144531 189.804688 163.753906 190.121094 163.335938 190.402344 C 162.917969 190.683594 162.472656 190.917969 162.007812 191.113281 C 161.542969 191.304688 161.0625 191.453125 160.566406 191.550781 C 160.070312 191.648438 159.570312 191.695312 159.066406 191.695312 C 158.5625 191.695312 158.0625 191.648438 157.570312 191.550781 C 157.074219 191.453125 156.59375 191.304688 156.128906 191.113281 C 155.660156 190.917969 155.21875 190.683594 154.800781 190.402344 C 154.378906 190.121094 153.992188 189.804688 153.636719 189.449219 C 153.28125 189.089844 152.960938 188.703125 152.679688 188.285156 C 152.402344 187.863281 152.164062 187.421875 151.972656 186.957031 C 151.777344 186.488281 151.632812 186.007812 151.535156 185.515625 C 151.433594 185.019531 151.386719 184.519531 151.386719 184.015625 C 151.386719 183.511719 151.433594 183.011719 151.535156 182.515625 C 151.632812 182.023438 151.777344 181.542969 151.972656 181.074219 C 152.164062 180.609375 152.402344 180.167969 152.679688 179.746094 C 152.960938 179.328125 153.28125 178.941406 153.636719 178.582031 C 153.992188 178.226562 154.378906 177.910156 154.800781 177.628906 C 155.21875 177.347656 155.660156 177.113281 156.128906 176.917969 C 156.59375 176.726562 157.074219 176.578125 157.570312 176.480469 C 158.0625 176.382812 158.5625 176.332031 159.066406 176.332031 C 159.570312 176.332031 160.070312 176.382812 160.566406 176.480469 C 161.0625 176.578125 161.542969 176.726562 162.007812 176.917969 C 162.472656 177.113281 162.917969 177.347656 163.335938 177.628906 C 163.753906 177.910156 164.144531 178.226562 164.5 178.582031 C 164.855469 178.941406 165.175781 179.328125 165.453125 179.746094 C 165.734375 180.167969 165.972656 180.609375 166.164062 181.074219 C 166.359375 181.542969 166.503906 182.023438 166.601562 182.515625 C 166.699219 183.011719 166.75 183.511719 166.75 184.015625 Z M 166.75 184.015625 " fill-opacity="1" fill-rule="nonzero"/><path fill="#ffffff" d="M 260.027344 178.371094 C 260.027344 179.441406 259.976562 180.503906 259.871094 181.566406 C 259.765625 182.628906 259.609375 183.6875 259.402344 184.734375 C 259.191406 185.78125 258.933594 186.816406 258.621094 187.835938 C 258.3125 188.859375 257.953125 189.863281 257.546875 190.851562 C 257.136719 191.835938 256.679688 192.800781 256.175781 193.742188 C 255.671875 194.683594 255.125 195.601562 254.53125 196.488281 C 253.9375 197.375 253.304688 198.234375 252.625 199.058594 C 251.949219 199.882812 251.230469 200.675781 250.476562 201.429688 C 249.722656 202.183594 248.929688 202.902344 248.105469 203.578125 C 247.28125 204.253906 246.421875 204.890625 245.535156 205.484375 C 244.648438 206.078125 243.730469 206.625 242.789062 207.128906 C 241.847656 207.632812 240.882812 208.089844 239.898438 208.496094 C 238.910156 208.90625 237.90625 209.265625 236.882812 209.574219 C 235.863281 209.886719 234.828125 210.144531 233.78125 210.351562 C 232.734375 210.5625 231.679688 210.71875 230.617188 210.824219 C 229.550781 210.925781 228.488281 210.980469 227.417969 210.980469 C 226.351562 210.980469 225.285156 210.925781 224.222656 210.824219 C 223.160156 210.71875 222.105469 210.5625 221.058594 210.351562 C 220.011719 210.144531 218.976562 209.886719 217.953125 209.574219 C 216.929688 209.265625 215.925781 208.90625 214.941406 208.496094 C 213.953125 208.089844 212.988281 207.632812 212.046875 207.128906 C 211.105469 206.625 210.191406 206.078125 209.304688 205.484375 C 208.414062 204.890625 207.558594 204.253906 206.734375 203.578125 C 205.90625 202.902344 205.117188 202.183594 204.363281 201.429688 C 203.605469 200.675781 202.890625 199.882812 202.210938 199.058594 C 201.535156 198.234375 200.898438 197.375 200.304688 196.488281 C 199.714844 195.601562 199.164062 194.683594 198.660156 193.742188 C 198.15625 192.800781 197.703125 191.835938 197.292969 190.851562 C 196.882812 189.863281 196.523438 188.859375 196.214844 187.835938 C 195.90625 186.816406 195.644531 185.78125 195.4375 184.734375 C 195.230469 183.6875 195.074219 182.628906 194.96875 181.566406 C 194.863281 180.503906 194.8125 179.441406 194.8125 178.371094 C 194.8125 177.304688 194.863281 176.238281 194.96875 175.175781 C 195.074219 174.113281 195.230469 173.058594 195.4375 172.011719 C 195.644531 170.964844 195.90625 169.929688 196.214844 168.90625 C 196.523438 167.882812 196.882812 166.878906 197.292969 165.894531 C 197.703125 164.90625 198.15625 163.941406 198.660156 163 C 199.164062 162.058594 199.714844 161.144531 200.304688 160.253906 C 200.898438 159.367188 201.535156 158.511719 202.210938 157.6875 C 202.890625 156.859375 203.605469 156.070312 204.363281 155.316406 C 205.117188 154.558594 205.90625 153.84375 206.734375 153.164062 C 207.558594 152.488281 208.414062 151.851562 209.304688 151.257812 C 210.191406 150.664062 211.105469 150.117188 212.046875 149.613281 C 212.988281 149.109375 213.953125 148.65625 214.941406 148.246094 C 215.925781 147.835938 216.929688 147.476562 217.953125 147.167969 C 218.976562 146.859375 220.011719 146.597656 221.058594 146.390625 C 222.105469 146.183594 223.160156 146.027344 224.222656 145.921875 C 225.285156 145.816406 226.351562 145.765625 227.417969 145.765625 C 228.488281 145.765625 229.550781 145.816406 230.617188 145.921875 C 231.679688 146.027344 232.734375 146.183594 233.78125 146.390625 C 234.828125 146.597656 235.863281 146.859375 236.882812 147.167969 C 237.90625 147.476562 238.910156 147.835938 239.898438 148.246094 C 240.882812 148.65625 241.847656 149.109375 242.789062 149.613281 C 243.730469 150.117188 244.648438 150.664062 245.535156 151.257812 C 246.421875 151.851562 247.28125 152.488281 248.105469 153.164062 C 248.929688 153.84375 249.722656 154.558594 250.476562 155.316406 C 251.230469 156.070312 251.949219 156.859375 252.625 157.683594 C 253.304688 158.511719 253.9375 159.367188 254.53125 160.253906 C 255.125 161.144531 255.671875 162.058594 256.175781 163 C 256.679688 163.941406 257.136719 164.90625 257.546875 165.894531 C 257.953125 166.878906 258.3125 167.882812 258.625 168.90625 C 258.933594 169.929688 259.191406 170.964844 259.402344 172.011719 C 259.609375 173.058594 259.765625 174.113281 259.871094 175.175781 C 259.976562 176.238281 260.027344 177.304688 260.027344 178.371094 Z M 260.027344 178.371094 " fill-opacity="1" fill-rule="nonzero"/><path fill="#0b3954" d="M 244.035156 178.371094 C 244.035156 178.917969 244.011719 179.460938 243.957031 180 C 243.902344 180.542969 243.824219 181.078125 243.71875 181.613281 C 243.609375 182.148438 243.480469 182.675781 243.320312 183.195312 C 243.164062 183.714844 242.980469 184.226562 242.773438 184.730469 C 242.5625 185.234375 242.332031 185.726562 242.074219 186.207031 C 241.816406 186.683594 241.539062 187.152344 241.234375 187.605469 C 240.933594 188.054688 240.609375 188.492188 240.265625 188.914062 C 239.917969 189.335938 239.554688 189.738281 239.167969 190.121094 C 238.785156 190.507812 238.382812 190.871094 237.960938 191.21875 C 237.539062 191.5625 237.105469 191.886719 236.652344 192.1875 C 236.199219 192.492188 235.734375 192.769531 235.253906 193.027344 C 234.773438 193.285156 234.28125 193.515625 233.777344 193.722656 C 233.277344 193.933594 232.765625 194.117188 232.242188 194.273438 C 231.722656 194.433594 231.195312 194.5625 230.660156 194.671875 C 230.128906 194.777344 229.589844 194.855469 229.046875 194.910156 C 228.507812 194.960938 227.964844 194.988281 227.417969 194.988281 C 226.875 194.988281 226.332031 194.960938 225.789062 194.910156 C 225.25 194.855469 224.710938 194.777344 224.175781 194.671875 C 223.644531 194.5625 223.117188 194.433594 222.59375 194.273438 C 222.074219 194.117188 221.5625 193.933594 221.058594 193.722656 C 220.558594 193.515625 220.066406 193.285156 219.585938 193.027344 C 219.105469 192.769531 218.640625 192.492188 218.1875 192.1875 C 217.734375 191.886719 217.296875 191.5625 216.878906 191.21875 C 216.457031 190.871094 216.054688 190.507812 215.667969 190.121094 C 215.285156 189.738281 214.917969 189.335938 214.574219 188.914062 C 214.226562 188.492188 213.90625 188.054688 213.601562 187.605469 C 213.300781 187.152344 213.019531 186.683594 212.765625 186.207031 C 212.507812 185.726562 212.273438 185.234375 212.066406 184.730469 C 211.859375 184.226562 211.675781 183.714844 211.515625 183.195312 C 211.359375 182.675781 211.226562 182.148438 211.121094 181.613281 C 211.015625 181.078125 210.933594 180.542969 210.882812 180 C 210.828125 179.460938 210.800781 178.917969 210.800781 178.371094 C 210.800781 177.828125 210.828125 177.285156 210.882812 176.742188 C 210.933594 176.203125 211.015625 175.664062 211.121094 175.128906 C 211.226562 174.597656 211.359375 174.070312 211.515625 173.546875 C 211.675781 173.027344 211.859375 172.515625 212.066406 172.011719 C 212.273438 171.511719 212.507812 171.019531 212.765625 170.539062 C 213.019531 170.058594 213.300781 169.59375 213.601562 169.140625 C 213.90625 168.6875 214.226562 168.25 214.574219 167.828125 C 214.917969 167.410156 215.285156 167.007812 215.667969 166.621094 C 216.054688 166.238281 216.457031 165.871094 216.878906 165.527344 C 217.296875 165.179688 217.734375 164.855469 218.1875 164.554688 C 218.640625 164.253906 219.105469 163.972656 219.585938 163.714844 C 220.066406 163.460938 220.558594 163.226562 221.058594 163.019531 C 221.5625 162.8125 222.074219 162.628906 222.59375 162.46875 C 223.117188 162.3125 223.644531 162.179688 224.175781 162.074219 C 224.710938 161.96875 225.25 161.886719 225.789062 161.835938 C 226.332031 161.78125 226.875 161.753906 227.417969 161.753906 C 227.964844 161.753906 228.507812 161.78125 229.046875 161.835938 C 229.589844 161.886719 230.128906 161.96875 230.660156 162.074219 C 231.195312 162.179688 231.722656 162.3125 232.242188 162.46875 C 232.765625 162.628906 233.277344 162.8125 233.777344 163.019531 C 234.28125 163.226562 234.773438 163.460938 235.253906 163.714844 C 235.734375 163.972656 236.199219 164.253906 236.652344 164.554688 C 237.105469 164.855469 237.539062 165.179688 237.960938 165.527344 C 238.382812 165.871094 238.785156 166.238281 239.167969 166.621094 C 239.554688 167.007812 239.917969 167.410156 240.265625 167.828125 C 240.609375 168.25 240.933594 168.6875 241.234375 169.140625 C 241.539062 169.59375 241.816406 170.058594 242.074219 170.539062 C 242.332031 171.019531 242.5625 171.511719 242.773438 172.011719 C 242.980469 172.515625 243.164062 173.027344 243.320312 173.546875 C 243.480469 174.070312 243.609375 174.597656 243.71875 175.128906 C 243.824219 175.664062 243.902344 176.203125 243.957031 176.742188 C 244.011719 177.285156 244.035156 177.828125 244.035156 178.371094 Z M 244.035156 178.371094 " fill-opacity="1" fill-rule="nonzero"/><path fill="#ffffff" d="M 231.652344 184.015625 C 231.652344 184.519531 231.601562 185.019531 231.503906 185.515625 C 231.40625 186.007812 231.261719 186.488281 231.066406 186.957031 C 230.875 187.421875 230.636719 187.863281 230.355469 188.285156 C 230.078125 188.703125 229.757812 189.089844 229.402344 189.449219 C 229.046875 189.804688 228.65625 190.121094 228.238281 190.402344 C 227.820312 190.683594 227.375 190.917969 226.910156 191.113281 C 226.445312 191.304688 225.964844 191.453125 225.46875 191.550781 C 224.972656 191.648438 224.472656 191.695312 223.96875 191.695312 C 223.464844 191.695312 222.964844 191.648438 222.472656 191.550781 C 221.976562 191.453125 221.496094 191.304688 221.03125 191.113281 C 220.566406 190.917969 220.121094 190.683594 219.703125 190.402344 C 219.28125 190.121094 218.894531 189.804688 218.539062 189.449219 C 218.183594 189.089844 217.863281 188.703125 217.582031 188.285156 C 217.304688 187.863281 217.066406 187.421875 216.875 186.957031 C 216.679688 186.488281 216.535156 186.007812 216.4375 185.515625 C 216.335938 185.019531 216.289062 184.519531 216.289062 184.015625 C 216.289062 183.511719 216.335938 183.011719 216.4375 182.515625 C 216.535156 182.023438 216.679688 181.542969 216.875 181.074219 C 217.066406 180.609375 217.304688 180.167969 217.582031 179.746094 C 217.863281 179.328125 218.183594 178.941406 218.539062 178.582031 C 218.894531 178.226562 219.28125 177.910156 219.703125 177.628906 C 220.121094 177.347656 220.566406 177.113281 221.03125 176.917969 C 221.496094 176.726562 221.976562 176.578125 222.472656 176.480469 C 222.964844 176.382812 223.464844 176.332031 223.96875 176.332031 C 224.472656 176.332031 224.972656 176.382812 225.46875 176.480469 C 225.964844 176.578125 226.445312 176.726562 226.910156 176.917969 C 227.375 177.113281 227.820312 177.347656 228.238281 177.628906 C 228.65625 177.910156 229.046875 178.226562 229.402344 178.582031 C 229.757812 178.941406 230.078125 179.328125 230.355469 179.746094 C 230.636719 180.167969 230.875 180.609375 231.066406 181.074219 C 231.261719 181.542969 231.40625 182.023438 231.503906 182.515625 C 231.601562 183.011719 231.652344 183.511719 231.652344 184.015625 Z M 231.652344 184.015625 " fill-opacity="1" fill-rule="nonzero"/><g clip-path="url(#cccd00931c)"><path fill="#0b3954" d="M 290.125 87.917969 L 193.558594 57.03125 L 92.910156 87.917969 L 91.96875 88.386719 L 92.910156 88.855469 L 135.710938 109.238281 C 135.710938 109.707031 135.550781 110.175781 135.550781 110.804688 L 135.550781 127.421875 C 151.230469 117.074219 171.140625 111.902344 191.363281 111.902344 C 210.175781 111.902344 231.023438 115.664062 247.171875 126.167969 L 247.171875 110.648438 C 247.171875 110.335938 247.171875 109.863281 247.171875 109.550781 L 289.96875 88.699219 L 290.910156 88.230469 Z M 290.125 87.917969 " fill-opacity="1" fill-rule="nonzero"/></g><path fill="#ffffff" d="M 108.117188 87.757812 C 111.722656 88.386719 108.117188 94.8125 108.117188 94.8125 C 108.117188 94.8125 104.667969 88.386719 108.117188 87.757812 Z M 108.117188 87.757812 " fill-opacity="1" fill-rule="nonzero"/><path fill="#fca203" d="M 108.117188 94.65625 L 111.878906 141.6875 L 104.511719 141.6875 Z M 108.117188 94.65625 " fill-opacity="1" fill-rule="nonzero"/></svg>